<?xml version="1.0" encoding="utf-8"?>
<!-- Generator: Adobe Illustrator 25.0.1, SVG Export Plug-In . SVG Version: 6.00 Build 0)  -->
<svg version="1.1" id="Layer_1" xmlns="http://www.w3.org/2000/svg" xmlns:xlink="http://www.w3.org/1999/xlink" x="0px" y="0px"
	 viewBox="0 0 45.4 45.4" style="enable-background:new 0 0 45.4 45.4;" xml:space="preserve">
<style type="text/css">
	.st0{fill:#F0F0F0;stroke:#DDDDDD;stroke-width:4;stroke-miterlimit:10;}
	.st1{fill:#FFFFFF;}
	.st2{fill:#0052B4;}
	.st3{fill:#D80027;}
</style>
<ellipse class="st0" cx="22.6" cy="22.7" rx="19.5" ry="19.5"/>
<ellipse class="st1" cx="22.6" cy="22.7" rx="19.5" ry="19.5"/>
<g transform="translate(0.728 0.661)">
	<path class="st2" d="M6.6,10.2c-1.5,2-2.7,4.4-3.3,6.8h10L6.6,10.2z"/>
	<path class="st2" d="M40.3,17c-0.7-2.4-1.8-4.8-3.3-6.8L30.4,17H40.3z"/>
	<path class="st2" d="M3.3,27.1c0.7,2.4,1.8,4.8,3.3,6.8l6.7-6.8C13.3,27.1,3.3,27.1,3.3,27.1z"/>
	<path class="st2" d="M33.5,6.5c-2-1.5-4.3-2.7-6.7-3.3v10.1L33.5,6.5z"/>
	<path class="st2" d="M10.1,37.4c2,1.5,4.3,2.7,6.7,3.3V30.6L10.1,37.4z"/>
	<path class="st2" d="M16.8,3.2c-2.4,0.7-4.7,1.8-6.7,3.3l6.7,6.8V3.2z"/>
	<path class="st2" d="M26.8,40.8c2.4-0.7,4.7-1.8,6.7-3.3l-6.7-6.8V40.8z"/>
	<path class="st2" d="M30.4,27.1l6.7,6.8c1.5-2,2.7-4.4,3.3-6.8C40.4,27.1,30.4,27.1,30.4,27.1z"/>
</g>
<g transform="translate(0.067)">
	<path class="st3" d="M41.8,20.1H25.1V3.4c-1.7-0.2-3.3-0.2-5.1,0v16.7H3.3c-0.2,1.7-0.2,3.3,0,5.1H20v16.7c1.7,0.2,3.3,0.2,5.1,0
		V25.1h16.7C42,23.5,42,21.8,41.8,20.1z"/>
	<path class="st3" d="M27.7,27.7L27.7,27.7l8.7,8.7c0.4-0.4,0.8-0.8,1.1-1.2l-7.4-7.4h-2.4V27.7z"/>
	<path class="st3" d="M17.6,27.7L17.6,27.7l-8.7,8.7c0.4,0.4,0.8,0.8,1.2,1.1l7.4-7.4v-2.4H17.6z"/>
	<path class="st3" d="M17.6,17.5L17.6,17.5L8.9,8.9c-0.4,0.4-0.8,0.8-1.1,1.2l7.4,7.4H17.6z"/>
	<path class="st3" d="M27.7,17.5L27.7,17.5l8.7-8.7C36,8.4,35.6,8,35.2,7.7l-7.4,7.4v2.4H27.7z"/>
</g>
</svg>
