<?xml version="1.0" encoding="utf-8"?>
<!-- Generator: Adobe Illustrator 25.2.0, SVG Export Plug-In . SVG Version: 6.00 Build 0)  -->
<svg version="1.1" xmlns="http://www.w3.org/2000/svg" xmlns:xlink="http://www.w3.org/1999/xlink" x="0px" y="0px"
	 viewBox="0 0 666.7 666.7" style="enable-background:new 0 0 666.7 666.7;" xml:space="preserve">
<style type="text/css">
	.st0{display:none;}
	.st1{display:inline;}
	.st2{clip-path:url(#SVGID_2_);}
	.st3{fill:#0866FF;}
	.st4{fill:#FFFFFF;}
</style>
<g id="svg9" xmlns:svg="http://www.w3.org/2000/svg" class="st0">
	<g class="st1">
		<defs>
			<rect id="SVGID_1_" x="-133.3" y="-133.3" width="933.3" height="933.3"/>
		</defs>
		<clipPath id="SVGID_2_">
			<use xlink:href="#SVGID_1_"  style="overflow:visible;"/>
		</clipPath>
		<g id="g21" class="st2">
			<g id="g27" transform="translate(600,350)">
				<path id="path29" class="st3" d="M66.7-16.7C66.7-200.8-82.6-350-266.7-350S-600-200.8-600-16.7
					c0,156.3,107.6,287.5,252.8,323.5V85.2h-68.7V-16.7h68.7v-43.9c0-113.5,51.3-166,162.7-166c21.1,0,57.6,4.1,72.5,8.3v92.3
					c-7.9-0.8-21.5-1.2-38.5-1.2c-54.7,0-75.8,20.7-75.8,74.5v36h108.9l-18.7,101.9h-90.2v229C-61.2,294.3,66.7,153.8,66.7-16.7"/>
			</g>
			<g id="g31" transform="translate(447.9175,273.6036)">
				<path id="path33" class="st4" d="M16,161.6L34.7,59.7H-74.2v-36c0-53.8,21.1-74.5,75.8-74.5c17,0,30.6,0.4,38.5,1.2v-92.3
					c-14.9-4.1-51.3-8.3-72.5-8.3c-111.4,0-162.7,52.6-162.7,166v43.9h-68.7v101.9h68.7v221.7c25.8,6.4,52.8,9.8,80.5,9.8
					c13.7,0,27.1-0.8,40.4-2.4v-229H16z"/>
			</g>
		</g>
	</g>
</g>
<g id="Layer_2">
	<g id="g27_1_" transform="translate(600,350)">
		<path id="path29_1_" d="M42.6-15.5c0-170.8-138.5-309.3-309.3-309.3S-575.9-186.3-575.9-15.5c0,145,99.8,266.7,234.5,300.1V79
			h-63.8v-94.5h63.8v-40.7c0-105.3,47.6-154,151-154c19.6,0,53.4,3.8,67.2,7.7v85.7c-7.3-0.8-20-1.2-35.7-1.2
			c-50.7,0-70.3,19.2-70.3,69.1v33.4h101L-145.5,79h-83.7v212.5C-76.1,273,42.6,142.6,42.6-15.5"/>
	</g>
</g>
</svg>
