<?xml version="1.0" encoding="utf-8"?>
<!-- Generator: Adobe Illustrator 25.2.0, SVG Export Plug-In . SVG Version: 6.00 Build 0)  -->
<svg version="1.1"
	 id="Layer_1" sodipodi:docname="Instagram_(2022).svg" xmlns:inkscape="http://www.inkscape.org/namespaces/inkscape" xmlns:sodipodi="http://sodipodi.sourceforge.net/DTD/sodipodi-0.dtd"
	 xmlns="http://www.w3.org/2000/svg" xmlns:xlink="http://www.w3.org/1999/xlink" x="0px" y="0px" viewBox="0 0 1000 1000"
	 style="enable-background:new 0 0 1000 1000;" xml:space="preserve">
<g inkscape:groupmode="layer" inkscape:label="Layer 1">
	<path inkscape:connector-curvature="0" d="M500.2,31.3c-127.4,0-143.4,0.6-193.4,2.8c-49.9,2.3-84,10.2-113.8,21.8
		c-30.8,12-57,28-83.1,54c-26.1,26.1-42.1,52.2-54.1,83C44.1,222.7,36.2,256.8,34,306.7c-2.2,50-2.8,66-2.8,193.3
		c0,127.3,0.6,143.2,2.8,193.2c2.3,49.9,10.2,84,21.8,113.7c12,30.8,28,57,54.1,83c26.1,26.1,52.2,42.1,83.1,54.1
		c29.8,11.6,63.9,19.5,113.9,21.8c50,2.3,66,2.8,193.4,2.8c127.4,0,143.3-0.6,193.4-2.8c49.9-2.3,84.1-10.2,113.9-21.8
		c30.8-12,57-28,83-54.1c26.1-26.1,42.1-52.2,54.1-83c11.5-29.8,19.4-63.9,21.8-113.7c2.2-50,2.8-65.9,2.8-193.2
		c0-127.3-0.6-143.3-2.8-193.2c-2.3-49.9-10.3-83.9-21.8-113.7c-12-30.8-28-57-54.1-83c-26.1-26.1-52.2-42.1-83.1-54
		c-29.9-11.6-64-19.5-113.9-21.8c-50-2.3-66-2.8-193.4-2.8L500.2,31.3z M458.1,115.7c12.5,0,26.4,0,42.1,0
		c125.2,0,140.1,0.4,189.5,2.7c45.7,2.1,70.5,9.7,87.1,16.1c21.9,8.5,37.5,18.6,53.9,35.1c16.4,16.4,26.6,32,35.1,53.9
		c6.4,16.5,14.1,41.3,16.2,87c2.2,49.4,2.7,64.2,2.7,189.3c0,125.1-0.5,139.9-2.7,189.3c-2.1,45.7-9.7,70.5-16.2,87
		c-8.5,21.9-18.7,37.4-35.1,53.8c-16.4,16.4-32,26.6-53.9,35.1c-16.5,6.4-41.4,14.1-87.1,16.1c-49.4,2.2-64.3,2.7-189.5,2.7
		c-125.2,0-140.1-0.5-189.5-2.7c-45.7-2.1-70.5-9.7-87.1-16.2c-21.9-8.5-37.5-18.6-53.9-35.1c-16.4-16.4-26.6-32-35.1-53.9
		c-6.4-16.5-14.1-41.3-16.2-87c-2.2-49.4-2.7-64.2-2.7-189.4c0-125.2,0.4-139.9,2.7-189.3c2.1-45.7,9.7-70.5,16.2-87
		c8.5-21.9,18.7-37.5,35.1-53.9c16.4-16.4,32-26.6,53.9-35.1c16.5-6.4,41.4-14.1,87.1-16.2c43.3-2,60-2.5,147.4-2.6L458.1,115.7z
		 M750.6,193.5c-31.1,0-56.3,25.2-56.3,56.2c0,31,25.2,56.2,56.3,56.2c31.1,0,56.3-25.2,56.3-56.2
		C806.9,218.7,781.6,193.5,750.6,193.5L750.6,193.5z M500.2,259.3c-133,0-240.9,107.8-240.9,240.7s107.8,240.6,240.9,240.6
		S741,632.8,741,499.9S633.2,259.3,500.2,259.3L500.2,259.3z M500.2,343.7c86.3,0,156.3,69.9,156.3,156.2
		c0,86.3-70,156.2-156.3,156.2c-86.3,0-156.3-69.9-156.3-156.2C343.9,413.6,413.9,343.7,500.2,343.7L500.2,343.7z"/>
</g>
</svg>
