<?xml version="1.0" encoding="utf-8"?>
<!-- Generator: Adobe Illustrator 25.2.0, SVG Export Plug-In . SVG Version: 6.00 Build 0)  -->
<svg version="1.1" id="Layer_1" xmlns="http://www.w3.org/2000/svg" xmlns:xlink="http://www.w3.org/1999/xlink" x="0px" y="0px"
	 viewBox="0 0 800 800" style="enable-background:new 0 0 800 800;" xml:space="preserve">
<style type="text/css">
	.st0{fill:#FFFFFF;}
</style>
<circle cx="400" cy="400" r="384"/>
<path class="st0" d="M206.8,262.7h385.4c20.5,0,9.9,26.2-1.2,33c-11.1,6.7-165,99.8-170.8,103.2c-5.8,3.4-13.2,5.1-20.7,5.1
	c-7.2,0.1-14.3-1.6-20.6-5.1L208,295.7C196.9,289,186.4,262.7,206.8,262.7z"/>
<path class="st0" d="M605,544.7c0,10.8-12.9,25.6-22.8,25.6H217.7c-9.8,0-22.8-14.9-22.8-25.6V357.7c0-4.7-0.1-10.8,8.8-5.6
	l175.1,103.3c6.2,3.8,13.4,5.6,20.6,5.1c7.5,0,12.9-0.6,20.7-5.1l176-103.2c8.9-5.2,8.8,0.9,8.8,5.6V544.7z"/>
</svg>
