<?xml version="1.0" encoding="utf-8"?>
<!-- Generator: Adobe Illustrator 25.2.0, SVG Export Plug-In . SVG Version: 6.00 Build 0)  -->
<svg version="1.1" id="Layer_1" xmlns="http://www.w3.org/2000/svg" xmlns:xlink="http://www.w3.org/1999/xlink" x="0px" y="0px"
	 viewBox="0 0 800 800" style="enable-background:new 0 0 800 800;" xml:space="preserve">
<style type="text/css">
	.st0{fill:#FFFFFF;}
</style>
<path class="st0" d="M400,16C187.9,16,16,187.9,16,400s171.9,384,384,384s384-171.9,384-384S612.1,16,400,16z M206.8,262.7h385.4
	c20.5,0,9.9,26.2-1.2,33c-11.1,6.7-165,99.8-170.8,103.2S407,404,399.5,404c-7.2,0.1-14.3-1.6-20.6-5.1L208,295.7
	C196.9,289,186.4,262.7,206.8,262.7z M582.2,570.3H217.7c-9.8,0-22.8-14.9-22.8-25.6v-187c0-4.7-0.1-10.8,8.8-5.6l175.1,103.3
	c6.2,3.8,13.4,5.6,20.6,5.1c7.5,0,12.9-0.6,20.7-5.1l176-103.2c8.9-5.2,8.8,0.9,8.8,5.6v186.9h0.1
	C605,555.5,592.1,570.3,582.2,570.3z"/>
</svg>
